<svg width="18" height="18" viewBox="0 0 18 18" x="0px" y="0px" xmlns="http://www.w3.org/2000/svg">
<path fill-rule="evenodd" clip-rule="evenodd" d="M16.0045 8C15.5169 4.61236 12.5583 2 9.00001 2C5.44176 2 2.48256 4.61293 1.99498 8.00057C1.99498 8.00057 -0.00638615 8 1.68164e-05 8.00057C0.501478 3.49502 4.34342 -5.96948e-07 9.00001 -3.93402e-07C13.6566 -1.89856e-07 17.4985 3.49502 18 8.00057L16.0045 8ZM9.00001 16C12.5583 16 15.5169 13.3876 16.0045 10L18 9.99943C17.4985 14.505 13.6566 18 9.00001 18C4.34342 18 0.501478 14.505 1.6729e-05 9.99943C0.493955 10 1.99498 9.99943 1.99498 9.99943C2.48255 13.3871 5.44176 16 9.00001 16Z"/>
</svg>
